<svg xmlns="http://www.w3.org/2000/svg" xmlns:xlink="http://www.w3.org/1999/xlink" viewBox="0 0 86.86 99.28"><defs><style>.cls-1{fill:#e8e8e8;opacity:0;}.cls-2{fill:#e1e1e1;opacity:0.05;}.cls-3{fill:#dcdcdc;opacity:0.1;}.cls-4{fill:#d7d7d7;opacity:0.14;}.cls-5{fill:#d2d2d2;opacity:0.19;}.cls-6{fill:#cecece;opacity:0.24;}.cls-7{fill:#c9c9c9;opacity:0.29;}.cls-8{fill:#c5c5c5;opacity:0.33;}.cls-9{fill:#c0c1c1;opacity:0.38;}.cls-10{fill:#bcbcbd;opacity:0.43;}.cls-11{fill:#b8b8b9;opacity:0.48;}.cls-12{fill:#b4b4b5;opacity:0.52;}.cls-13{fill:#b0b0b1;opacity:0.57;}.cls-14{fill:#acacad;opacity:0.62;}.cls-15{fill:#a8a8a9;opacity:0.67;}.cls-16{fill:#a4a4a5;opacity:0.71;}.cls-17{fill:#a0a1a1;opacity:0.76;}.cls-18{fill:#9c9d9d;opacity:0.81;}.cls-19{fill:#98999a;opacity:0.86;}.cls-20{fill:#959696;opacity:0.9;}.cls-21{fill:#919293;opacity:0.95;}.cls-22{fill:#8d8f8f;}.cls-23{fill:url(#linear-gradient);}.cls-24{fill:#858685;}.cls-25{fill:#969696;}.cls-26{fill:#999594;}</style><linearGradient id="linear-gradient" x1="64.32" y1="69.07" x2="16.41" y2="11.43" gradientUnits="userSpaceOnUse"><stop offset="0.33" stop-color="#fff"/><stop offset="0.46" stop-color="#f5f6f6"/><stop offset="0.68" stop-color="#dbdcde"/><stop offset="0.89" stop-color="#bcbec0"/></linearGradient></defs><title>awkwardsmile</title><g id="Layer_2" data-name="Layer 2"><g id="Ebene_1" data-name="Ebene 1"><path class="cls-1" d="M55,27.27a36.11,36.11,0,1,1-39.58,32A36,36,0,0,1,55,27.27Z"/><path class="cls-2" d="M54.5,26A36.34,36.34,0,1,1,14.67,58.14,36.19,36.19,0,0,1,54.5,26Z"/><path class="cls-3" d="M54,24.71A36.55,36.55,0,1,1,14,57.05,36.41,36.41,0,0,1,54,24.71Z"/><path class="cls-4" d="M53.54,23.43A36.77,36.77,0,1,1,13.23,56,36.63,36.63,0,0,1,53.54,23.43Z"/><path class="cls-5" d="M53.06,22.15A37,37,0,1,1,12.51,54.89,36.85,36.85,0,0,1,53.06,22.15Z"/><path class="cls-6" d="M52.58,20.88A37.21,37.21,0,1,1,11.79,53.8,37.07,37.07,0,0,1,52.58,20.88Z"/><path class="cls-7" d="M52.1,19.6a37.43,37.43,0,1,1-41,33.12A37.29,37.29,0,0,1,52.1,19.6Z"/><path class="cls-8" d="M51.62,18.32A37.65,37.65,0,1,1,10.35,51.64,37.51,37.51,0,0,1,51.62,18.32Z"/><path class="cls-9" d="M51.14,17A37.87,37.87,0,1,1,9.63,50.55,37.73,37.73,0,0,1,51.14,17Z"/><path class="cls-10" d="M50.66,15.76A38.09,38.09,0,1,1,8.91,49.47,37.94,37.94,0,0,1,50.66,15.76Z"/><path class="cls-11" d="M50.18,14.48a38.31,38.31,0,1,1-42,33.91A38.17,38.17,0,0,1,50.18,14.48Z"/><path class="cls-12" d="M49.69,13.21A38.52,38.52,0,1,1,7.47,47.3,38.36,38.36,0,0,1,49.69,13.21Z"/><path class="cls-13" d="M49.21,11.93A38.74,38.74,0,1,1,6.75,46.22,38.61,38.61,0,0,1,49.21,11.93Z"/><path class="cls-14" d="M48.73,10.65A39,39,0,1,1,6,45.14,38.83,38.83,0,0,1,48.73,10.65Z"/><path class="cls-15" d="M48.25,9.37A39.19,39.19,0,1,1,5.31,44.05,39,39,0,0,1,48.25,9.37Z"/><path class="cls-16" d="M47.77,8.09A39.4,39.4,0,1,1,4.59,43,39.26,39.26,0,0,1,47.77,8.09Z"/><path class="cls-17" d="M47.29,6.82A39.62,39.62,0,1,1,3.86,41.88,39.46,39.46,0,0,1,47.29,6.82Z"/><path class="cls-18" d="M46.81,5.54A39.84,39.84,0,1,1,3.14,40.8,39.69,39.69,0,0,1,46.81,5.54Z"/><path class="cls-19" d="M46.33,4.26A40.06,40.06,0,1,1,2.42,39.72,39.91,39.91,0,0,1,46.33,4.26Z"/><path class="cls-20" d="M45.85,3A40.28,40.28,0,1,1,1.7,38.63,40.15,40.15,0,0,1,45.85,3Z"/><path class="cls-21" d="M45.37,1.7A40.5,40.5,0,1,1,1,37.55,40.36,40.36,0,0,1,45.37,1.7Z"/><path class="cls-22" d="M44.89.43a40.72,40.72,0,1,1-44.63,36A40.57,40.57,0,0,1,44.89.43Z"/><path class="cls-23" d="M45.44.25A40.94,40.94,0,1,1,.25,36.45,40.94,40.94,0,0,1,45.44.25Z"/><path class="cls-24" d="M29.24,23A5.47,5.47,0,1,1,23,27.55,5.48,5.48,0,0,1,29.24,23Z"/><path class="cls-25" d="M52.67,23.31a5.46,5.46,0,1,1-6.25,4.54A5.47,5.47,0,0,1,52.67,23.31Z"/><path class="cls-26" d="M66.36,40.6a1.82,1.82,0,0,0-2.23.32C56.21,49.18,48,53.18,39.71,52.79,26.87,52.2,18,41.16,17.87,41.05a1.07,1.07,0,0,0-.14-.16,1.82,1.82,0,0,0-2.22-.28,1.84,1.84,0,0,0-.83,2.07C18,54.13,26.55,66.36,40.84,66.36c18.06,0,24.74-18.12,26.36-23.67A1.81,1.81,0,0,0,66.36,40.6ZM40.84,62.71c-10.2,0-16.24-7.28-19.51-13.39,4.28,3.28,10.54,6.76,18.18,7.12,7.28.35,14.42-2.21,21.32-7.6C57.56,55.18,51.45,62.71,40.84,62.71Z"/></g></g></svg>