<svg xmlns="http://www.w3.org/2000/svg" xmlns:xlink="http://www.w3.org/1999/xlink" viewBox="0 0 87.52 99.28"><defs><style>.cls-1{fill:#e8e8e8;opacity:0;}.cls-2{fill:#e1e1e1;opacity:0.05;}.cls-3{fill:#dcdcdc;opacity:0.1;}.cls-4{fill:#d7d7d7;opacity:0.14;}.cls-5{fill:#d2d2d2;opacity:0.19;}.cls-6{fill:#cecece;opacity:0.24;}.cls-7{fill:#c9c9c9;opacity:0.29;}.cls-8{fill:#c5c5c5;opacity:0.33;}.cls-9{fill:#c0c1c1;opacity:0.38;}.cls-10{fill:#bcbcbd;opacity:0.43;}.cls-11{fill:#b8b8b9;opacity:0.48;}.cls-12{fill:#b4b4b5;opacity:0.52;}.cls-13{fill:#b0b0b1;opacity:0.57;}.cls-14{fill:#acacad;opacity:0.62;}.cls-15{fill:#a8a8a9;opacity:0.67;}.cls-16{fill:#a4a4a5;opacity:0.71;}.cls-17{fill:#a0a1a1;opacity:0.76;}.cls-18{fill:#9c9d9d;opacity:0.81;}.cls-19{fill:#98999a;opacity:0.86;}.cls-20{fill:#959696;opacity:0.9;}.cls-21{fill:#919293;opacity:0.95;}.cls-22{fill:#8d8f8f;}.cls-23{fill:url(#linear-gradient);}.cls-24{fill:#858685;}.cls-25{fill:#969696;}.cls-26{fill:#999594;}</style><linearGradient id="linear-gradient" x1="64.32" y1="69.07" x2="16.41" y2="11.43" gradientUnits="userSpaceOnUse"><stop offset="0.33" stop-color="#fff"/><stop offset="0.46" stop-color="#f5f6f6"/><stop offset="0.68" stop-color="#dbdcde"/><stop offset="0.89" stop-color="#bcbec0"/></linearGradient></defs><title>grin</title><g id="Layer_2" data-name="Layer 2"><g id="Ebene_1" data-name="Ebene 1"><path class="cls-1" d="M55.64,27.27a36.11,36.11,0,1,1-39.58,32A36,36,0,0,1,55.64,27.27Z"/><path class="cls-2" d="M55.16,26A36.34,36.34,0,1,1,15.34,58.14,36.19,36.19,0,0,1,55.16,26Z"/><path class="cls-3" d="M54.68,24.71A36.55,36.55,0,1,1,14.62,57.05,36.41,36.41,0,0,1,54.68,24.71Z"/><path class="cls-4" d="M54.2,23.43A36.77,36.77,0,1,1,13.9,56,36.63,36.63,0,0,1,54.2,23.43Z"/><path class="cls-5" d="M53.72,22.15A37,37,0,1,1,13.18,54.89,36.85,36.85,0,0,1,53.72,22.15Z"/><path class="cls-6" d="M53.24,20.88A37.21,37.21,0,1,1,12.45,53.8,37.07,37.07,0,0,1,53.24,20.88Z"/><path class="cls-7" d="M52.76,19.6a37.43,37.43,0,1,1-41,33.12A37.28,37.28,0,0,1,52.76,19.6Z"/><path class="cls-8" d="M52.28,18.32A37.65,37.65,0,1,1,11,51.64,37.51,37.51,0,0,1,52.28,18.32Z"/><path class="cls-9" d="M51.8,17A37.87,37.87,0,1,1,10.29,50.55,37.73,37.73,0,0,1,51.8,17Z"/><path class="cls-10" d="M51.32,15.76A38.09,38.09,0,1,1,9.57,49.47,37.94,37.94,0,0,1,51.32,15.76Z"/><path class="cls-11" d="M50.84,14.48a38.31,38.31,0,1,1-42,33.91A38.18,38.18,0,0,1,50.84,14.48Z"/><path class="cls-12" d="M50.36,13.21A38.52,38.52,0,1,1,8.13,47.3,38.38,38.38,0,0,1,50.36,13.21Z"/><path class="cls-13" d="M49.88,11.93A38.75,38.75,0,1,1,7.41,46.22,38.6,38.6,0,0,1,49.88,11.93Z"/><path class="cls-14" d="M49.4,10.65A39,39,0,1,1,6.69,45.14,38.82,38.82,0,0,1,49.4,10.65Z"/><path class="cls-15" d="M48.92,9.37A39.19,39.19,0,1,1,6,44.05,39,39,0,0,1,48.92,9.37Z"/><path class="cls-16" d="M48.43,8.09A39.4,39.4,0,1,1,5.25,43,39.26,39.26,0,0,1,48.43,8.09Z"/><path class="cls-17" d="M48,6.82A39.62,39.62,0,1,1,4.53,41.88,39.46,39.46,0,0,1,48,6.82Z"/><path class="cls-18" d="M47.47,5.54A39.84,39.84,0,1,1,3.81,40.8,39.7,39.7,0,0,1,47.47,5.54Z"/><path class="cls-19" d="M47,4.26A40.06,40.06,0,1,1,3.09,39.72,39.92,39.92,0,0,1,47,4.26Z"/><path class="cls-20" d="M46.51,3A40.28,40.28,0,1,1,2.36,38.63,40.14,40.14,0,0,1,46.51,3Z"/><path class="cls-21" d="M46,1.7A40.5,40.5,0,1,1,1.64,37.55,40.36,40.36,0,0,1,46,1.7Z"/><path class="cls-22" d="M45.55.43a40.72,40.72,0,1,1-44.63,36A40.56,40.56,0,0,1,45.55.43Z"/><path class="cls-23" d="M45.44.25A40.94,40.94,0,1,1,.25,36.45,40.94,40.94,0,0,1,45.44.25Z"/><path class="cls-24" d="M29.9,23a5.47,5.47,0,1,1-6.25,4.54A5.49,5.49,0,0,1,29.9,23Z"/><path class="cls-25" d="M53.34,23.31a5.46,5.46,0,1,1-6.26,4.54A5.47,5.47,0,0,1,53.34,23.31Z"/><path class="cls-26" d="M66.59,41.18a1.81,1.81,0,0,0-1.66-.34c-25,7.25-47.71.09-47.94,0a1.82,1.82,0,0,0-2.37,2c1.13,9.63,9.34,24,27.29,24,17.71,0,24.73-16.19,25.35-24A1.81,1.81,0,0,0,66.59,41.18ZM41.91,63.12c-14.82,0-21.25-10.57-23.14-18a94.44,94.44,0,0,0,44.42,0C61.54,52.27,55.29,63.12,41.91,63.12Z"/><path class="cls-26" d="M17.48,50.35c.27.12,27.18,12.2,47.43-.86l-1-1.53c-19.41,12.52-45.42.85-45.68.73Z"/><rect class="cls-26" x="39.88" y="46.74" width="1.83" height="18.18"/><rect class="cls-26" x="47.79" y="46.94" width="1.83" height="17.05"/><rect class="cls-26" x="55.51" y="45.93" width="1.83" height="13.89"/><rect class="cls-26" x="24.66" y="44.71" width="1.83" height="14.66"/><rect class="cls-26" x="32.37" y="45.93" width="1.83" height="17.71"/></g></g></svg>