<svg xmlns="http://www.w3.org/2000/svg" xmlns:xlink="http://www.w3.org/1999/xlink" viewBox="0 0 101.13 113"><defs><style>.cls-1{fill:#e8e8e8;opacity:0;}.cls-2{fill:#e1e1e1;opacity:0.05;}.cls-3{fill:#dcdcdc;opacity:0.1;}.cls-4{fill:#d7d7d7;opacity:0.14;}.cls-5{fill:#d2d2d2;opacity:0.19;}.cls-6{fill:#cecece;opacity:0.24;}.cls-7{fill:#c9c9c9;opacity:0.29;}.cls-8{fill:#c5c5c5;opacity:0.33;}.cls-9{fill:#c0c1c1;opacity:0.38;}.cls-10{fill:#bcbcbd;opacity:0.43;}.cls-11{fill:#b8b8b9;opacity:0.48;}.cls-12{fill:#b4b4b5;opacity:0.52;}.cls-13{fill:#b0b0b1;opacity:0.57;}.cls-14{fill:#acacad;opacity:0.62;}.cls-15{fill:#a8a8a9;opacity:0.67;}.cls-16{fill:#a4a4a5;opacity:0.71;}.cls-17{fill:#a0a1a1;opacity:0.76;}.cls-18{fill:#9c9d9d;opacity:0.81;}.cls-19{fill:#98999a;opacity:0.86;}.cls-20{fill:#959696;opacity:0.9;}.cls-21{fill:#919293;opacity:0.95;}.cls-22{fill:#8d8f8f;}.cls-23{fill:url(#linear-gradient);}.cls-24{fill:#858685;}.cls-25{fill:#969696;}</style><linearGradient id="linear-gradient" x1="64.32" y1="82.79" x2="16.41" y2="25.16" gradientUnits="userSpaceOnUse"><stop offset="0.33" stop-color="#fff"/><stop offset="0.46" stop-color="#f5f6f6"/><stop offset="0.68" stop-color="#dbdcde"/><stop offset="0.89" stop-color="#bcbec0"/></linearGradient></defs><title>inlove</title><g id="Layer_2" data-name="Layer 2"><g id="Ebene_1" data-name="Ebene 1"><path class="cls-1" d="M55,41A36.11,36.11,0,1,1,15.4,73,36,36,0,0,1,55,41Z"/><path class="cls-2" d="M54.5,39.71A36.34,36.34,0,1,1,14.67,71.86,36.2,36.2,0,0,1,54.5,39.71Z"/><path class="cls-3" d="M54,38.44A36.55,36.55,0,1,1,14,70.78,36.4,36.4,0,0,1,54,38.44Z"/><path class="cls-4" d="M53.54,37.16A36.77,36.77,0,1,1,13.23,69.7,36.62,36.62,0,0,1,53.54,37.16Z"/><path class="cls-5" d="M53.06,35.88A37,37,0,1,1,12.51,68.61,36.84,36.84,0,0,1,53.06,35.88Z"/><path class="cls-6" d="M52.58,34.6A37.21,37.21,0,1,1,11.79,67.53,37.07,37.07,0,0,1,52.58,34.6Z"/><path class="cls-7" d="M52.1,33.32a37.43,37.43,0,1,1-41,33.13A37.3,37.3,0,0,1,52.1,33.32Z"/><path class="cls-8" d="M51.62,32A37.65,37.65,0,1,1,10.35,65.36,37.52,37.52,0,0,1,51.62,32Z"/><path class="cls-9" d="M51.14,30.77A37.87,37.87,0,1,1,9.63,64.28,37.72,37.72,0,0,1,51.14,30.77Z"/><path class="cls-10" d="M50.66,29.49A38.09,38.09,0,1,1,8.91,63.2,37.94,37.94,0,0,1,50.66,29.49Z"/><path class="cls-11" d="M50.18,28.21a38.31,38.31,0,1,1-42,33.9A38.16,38.16,0,0,1,50.18,28.21Z"/><path class="cls-12" d="M49.69,26.93A38.53,38.53,0,1,1,7.47,61,38.37,38.37,0,0,1,49.69,26.93Z"/><path class="cls-13" d="M49.21,25.65A38.75,38.75,0,1,1,6.75,59.94,38.62,38.62,0,0,1,49.21,25.65Z"/><path class="cls-14" d="M48.73,24.38A39,39,0,1,1,6,58.86,38.82,38.82,0,0,1,48.73,24.38Z"/><path class="cls-15" d="M48.25,23.1A39.18,39.18,0,1,1,5.31,57.78,39,39,0,0,1,48.25,23.1Z"/><path class="cls-16" d="M47.77,21.82A39.4,39.4,0,1,1,4.59,56.69,39.25,39.25,0,0,1,47.77,21.82Z"/><path class="cls-17" d="M47.29,20.54A39.63,39.63,0,1,1,3.86,55.61,39.48,39.48,0,0,1,47.29,20.54Z"/><path class="cls-18" d="M46.81,19.26A39.84,39.84,0,1,1,3.14,54.53,39.69,39.69,0,0,1,46.81,19.26Z"/><path class="cls-19" d="M46.33,18A40.06,40.06,0,1,1,2.42,53.44,39.91,39.91,0,0,1,46.33,18Z"/><path class="cls-20" d="M45.85,16.71A40.28,40.28,0,1,1,1.7,52.36,40.15,40.15,0,0,1,45.85,16.71Z"/><path class="cls-21" d="M45.37,15.43A40.5,40.5,0,1,1,1,51.28,40.35,40.35,0,0,1,45.37,15.43Z"/><path class="cls-22" d="M44.89,14.15a40.72,40.72,0,1,1-44.63,36A40.58,40.58,0,0,1,44.89,14.15Z"/><path class="cls-23" d="M45.44,14A40.94,40.94,0,1,1,.25,50.18,40.93,40.93,0,0,1,45.44,14Z"/><path class="cls-24" d="M29.24,36.74A5.47,5.47,0,1,1,23,41.28,5.47,5.47,0,0,1,29.24,36.74Z"/><path class="cls-25" d="M52.67,37a5.47,5.47,0,1,1-6.25,4.54A5.48,5.48,0,0,1,52.67,37Z"/><path class="cls-25" d="M40.46,75.85C29.64,75.78,20.28,68.4,16.55,57a1.78,1.78,0,0,1,3.38-1.09c3.24,9.93,11.3,16.35,20.55,16.41h.17c9.2,0,16.86-6.21,20-16.14a1.78,1.78,0,0,1,3.39,1.08C60.42,68.69,51.47,75.82,40.67,75.85Z"/><path class="cls-25" d="M77.9,11.77a8.27,8.27,0,0,0-9.75,4,8.28,8.28,0,0,0-9.76-4c-6.1,1.73-5.77,10.48-2.28,14.09C60,29.93,64.77,32,68.1,35.4h.09c3.33-3.41,8.06-5.47,12-9.54C83.67,22.25,84,13.5,77.9,11.77Z"/><path class="cls-25" d="M100,6.25a5.17,5.17,0,0,0-6.52-.9,5.15,5.15,0,0,0-4-5.22C85.7-.86,83.14,4,83.88,7c.84,3.42,2.74,6,3.47,8.9l0,0c2.87-.79,6.06-.42,9.45-1.38C99.86,13.7,102.78,9.1,100,6.25Z"/></g></g></svg>