<svg xmlns="http://www.w3.org/2000/svg" xmlns:xlink="http://www.w3.org/1999/xlink" viewBox="0 0 87.5 99.28"><defs><style>.cls-1{fill:#e8e8e8;opacity:0;}.cls-2{fill:#e1e1e1;opacity:0.05;}.cls-3{fill:#dcdcdc;opacity:0.1;}.cls-4{fill:#d7d7d7;opacity:0.14;}.cls-5{fill:#d2d2d2;opacity:0.19;}.cls-6{fill:#cecece;opacity:0.24;}.cls-7{fill:#c9c9c9;opacity:0.29;}.cls-8{fill:#c5c5c5;opacity:0.33;}.cls-9{fill:#c0c1c1;opacity:0.38;}.cls-10{fill:#bcbcbd;opacity:0.43;}.cls-11{fill:#b8b8b9;opacity:0.48;}.cls-12{fill:#b4b4b5;opacity:0.52;}.cls-13{fill:#b0b0b1;opacity:0.57;}.cls-14{fill:#acacad;opacity:0.62;}.cls-15{fill:#a8a8a9;opacity:0.67;}.cls-16{fill:#a4a4a5;opacity:0.71;}.cls-17{fill:#a0a1a1;opacity:0.76;}.cls-18{fill:#9c9d9d;opacity:0.81;}.cls-19{fill:#98999a;opacity:0.86;}.cls-20{fill:#959696;opacity:0.9;}.cls-21{fill:#919293;opacity:0.95;}.cls-22{fill:#8d8f8f;}.cls-23{fill:url(#linear-gradient);}.cls-24{fill:#858685;}.cls-25{fill:#969696;}</style><linearGradient id="linear-gradient" x1="64.32" y1="69.06" x2="16.41" y2="11.43" gradientUnits="userSpaceOnUse"><stop offset="0.33" stop-color="#fff"/><stop offset="0.46" stop-color="#f5f6f6"/><stop offset="0.68" stop-color="#dbdcde"/><stop offset="0.89" stop-color="#bcbec0"/></linearGradient></defs><title>smile</title><g id="Layer_2" data-name="Layer 2"><g id="Ebene_1" data-name="Ebene 1"><path class="cls-1" d="M55.62,27.27A36.11,36.11,0,1,1,16,59.22,36,36,0,0,1,55.62,27.27Z"/><path class="cls-2" d="M55.14,26A36.33,36.33,0,1,1,15.32,58.14,36.18,36.18,0,0,1,55.14,26Z"/><path class="cls-3" d="M54.66,24.71A36.55,36.55,0,1,1,14.6,57.05,36.41,36.41,0,0,1,54.66,24.71Z"/><path class="cls-4" d="M54.18,23.43A36.77,36.77,0,1,1,13.88,56,36.64,36.64,0,0,1,54.18,23.43Z"/><path class="cls-5" d="M53.7,22.15A37,37,0,1,1,13.16,54.89,36.85,36.85,0,0,1,53.7,22.15Z"/><path class="cls-6" d="M53.22,20.88A37.21,37.21,0,1,1,12.44,53.8,37.07,37.07,0,0,1,53.22,20.88Z"/><path class="cls-7" d="M52.74,19.6a37.43,37.43,0,1,1-41,33.12A37.28,37.28,0,0,1,52.74,19.6Z"/><path class="cls-8" d="M52.26,18.32A37.65,37.65,0,1,1,11,51.64,37.5,37.5,0,0,1,52.26,18.32Z"/><path class="cls-9" d="M51.78,17A37.87,37.87,0,1,1,10.27,50.55,37.73,37.73,0,0,1,51.78,17Z"/><path class="cls-10" d="M51.3,15.76A38.09,38.09,0,1,1,9.55,49.47,37.94,37.94,0,0,1,51.3,15.76Z"/><path class="cls-11" d="M50.82,14.48a38.31,38.31,0,1,1-42,33.91A38.17,38.17,0,0,1,50.82,14.48Z"/><path class="cls-12" d="M50.34,13.21A38.52,38.52,0,1,1,8.11,47.3,38.38,38.38,0,0,1,50.34,13.21Z"/><path class="cls-13" d="M49.86,11.93A38.75,38.75,0,1,1,7.39,46.22,38.6,38.6,0,0,1,49.86,11.93Z"/><path class="cls-14" d="M49.38,10.65A39,39,0,1,1,6.67,45.14,38.81,38.81,0,0,1,49.38,10.65Z"/><path class="cls-15" d="M48.9,9.37A39.18,39.18,0,1,1,6,44.05,39,39,0,0,1,48.9,9.37Z"/><path class="cls-16" d="M48.42,8.09A39.4,39.4,0,1,1,5.23,43,39.26,39.26,0,0,1,48.42,8.09Z"/><path class="cls-17" d="M47.94,6.82A39.62,39.62,0,1,1,4.51,41.88,39.46,39.46,0,0,1,47.94,6.82Z"/><path class="cls-18" d="M47.45,5.54A39.84,39.84,0,1,1,3.79,40.8,39.7,39.7,0,0,1,47.45,5.54Z"/><path class="cls-19" d="M47,4.26A40.06,40.06,0,1,1,3.07,39.72,39.92,39.92,0,0,1,47,4.26Z"/><path class="cls-20" d="M46.49,3A40.28,40.28,0,1,1,2.35,38.63,40.13,40.13,0,0,1,46.49,3Z"/><path class="cls-21" d="M46,1.7A40.5,40.5,0,1,1,1.63,37.55,40.36,40.36,0,0,1,46,1.7Z"/><path class="cls-22" d="M45.53.43A40.72,40.72,0,1,1,.9,36.47,40.56,40.56,0,0,1,45.53.43Z"/><path class="cls-23" d="M45.44.25A40.94,40.94,0,1,1,.25,36.45,40.94,40.94,0,0,1,45.44.25Z"/><path class="cls-24" d="M29.88,23a5.47,5.47,0,1,1-6.25,4.54A5.49,5.49,0,0,1,29.88,23Z"/><path class="cls-25" d="M53.32,23.31a5.46,5.46,0,1,1-6.26,4.54A5.47,5.47,0,0,1,53.32,23.31Z"/><path class="cls-25" d="M41.1,63.53c-10.81-.07-20.18-7.45-23.9-18.87a1.76,1.76,0,0,1,1.14-2.23,1.79,1.79,0,0,1,2.24,1.14C23.82,53.5,31.87,59.92,41.12,60h.18c9.19,0,16.86-6.21,20-16.14a1.77,1.77,0,1,1,3.38,1.08C61.07,56.36,52.11,63.49,41.31,63.53Z"/></g></g></svg>